<svg xmlns="http://www.w3.org/2000/svg" width="277" height="245" viewBox="0 0 277 245">
    <path fill="#57B5E6" fill-rule="evenodd" d="M207.666 39.726c19.957 15.295 28.162 40.417 23.357 71.09 41.023 20.415 50.02 54.713 44.511 80.542C268.801 222.942 241.084 245 208.13 245h-79.686c-3.602 0-6.519-2.94-6.519-6.572s2.917-6.573 6.519-6.573h79.686c22.802 0 42.46-12.95 51.143-32.543h-91.747c-3.602 0-6.518-2.94-6.518-6.57 0-3.63 2.916-6.572 6.518-6.572h95.678c1.384-8.426.792-17.816-2.631-27.122h-68.559c-3.604 0-6.518-2.943-6.518-6.572 0-3.63 2.914-6.573 6.518-6.573h61.59c-6.67-9.42-16.884-18.162-31.797-24.94a6.467 6.467 0 0 1-1.857-1.272l-.696-.677a6.603 6.603 0 0 1-1.856-6c5.51-28.036-.581-49.761-17.622-62.824-18.47-14.155-45.603-14.43-61.167-6.53a6.483 6.483 0 0 1-8.354-2.224C114.549 17.686 86.15 8.04 54.268 15.61 24.582 22.667-7.426 46.276-12.016 83.107c-.447 3.601-3.678 6.175-7.278 5.699-3.57-.452-6.104-3.737-5.654-7.34 5.367-43.087 42.15-70.549 76.225-78.65 34.811-8.276 67.462 1.994 86.619 26.843 19.263-7.28 48.402-6.315 69.77 10.067zm-96.92 78.157c-.045 0-.085-.019-.13-.019-2.523 2.949-4.41 5.736-4.926 7.727 16.602 41.755 24.662 88.524-37.02 121.117C65.773 248.238 66 249 58 250s-81.08-1.073-102 1c-21.099 2.09 19-4-1-1s-25.63 2.41-23-3c.458-.941-.635 2.661-.143 1.69 9.994-19.719 27.25-45.413 56.306-69.39h-36.85c-3.603 0-6.524-2.926-6.524-6.537 0-3.612 2.921-6.538 6.523-6.538h56.2c.043 0 .084.016.127.019a6.475 6.475 0 0 1 1.83.31c.455.143.894.33 1.31.572.041.02.086.03.125.052l.075.048.013.006 34.642 21.143c3.077 1.876 4.055 5.9 2.18 8.985a6.51 6.51 0 0 1-8.963 2.184L7.843 180.619C-24.495 204.12-44.045 228.575-55 249c-1.14 2.124 15.841-1.951 22-2 16.05-.128 36.492 1.208 48.343-.013 23.53-2.43 33.115-4.384 47.242-11.845 50.082-26.466 48.4-61.514 30.468-106.002a7.645 7.645 0 0 1-.534-3.409c.396-8.477 8.79-17.725 14.972-23.421-7.161-5.754-20.368-14.093-31.18-8.187-4.865 2.66-8.41 6.33-10.85 11.22-2.751 4.936-5.337 10.222-5.681 11.587-.862 3.431-4.33 5.69-7.774 4.926-3.448-.769-5.69-4.005-5.02-7.482.7-3.621 4.655-11.046 6.947-15.146 3.473-6.987 8.949-12.66 16.133-16.585 20.756-11.362 43.154 6.906 49.991 13.255h57.417a6.53 6.53 0 0 1 6.512 6.105c.224 3.436-2.242 6.46-5.647 6.915l-66.73 8.906c-.29.038-.582.059-.862.059zm-62.97 26.17l-28.885-29.202h-127.354c-3.61 0-6.537-2.875-6.537-6.424 0-3.551 2.927-6.427 6.537-6.427H21.653c1.764 0 3.453.7 4.686 1.946l30.811 31.147a6.352 6.352 0 0 1-.13 9.088A6.57 6.57 0 0 1 52.464 146a6.565 6.565 0 0 1-4.686-1.946zm-40.972.796H-78.52c-3.578 0-6.48-2.877-6.48-6.424 0-3.548 2.902-6.425 6.48-6.425H8.92c1.375 0 2.713.435 3.825 1.239l41.6 30.149c2.888 2.094 3.52 6.114 1.405 8.978A6.486 6.486 0 0 1 50.514 175a6.486 6.486 0 0 1-3.82-1.239l-39.89-28.912z"/>
</svg>
